<svg width="170" height="28" viewBox="0 0 170 28" fill="none" xmlns="http://www.w3.org/2000/svg">
<path d="M24.1527 23.5637L14.9146 26.7337V17.5103L24.1527 14.3403V23.5637Z" fill="white"/>
<path d="M14.9144 17.5102L0 12.3936V21.6169L14.9144 26.7336V17.5102Z" fill="#0A3D8C"/>
<path d="M37.0848 18.7765L24.1523 14.3398V23.5632L37.0848 27.9998V18.7765Z" fill="#0A3D8C"/>
<path d="M46.3231 24.8298L37.085 27.9998V18.7764L46.3231 15.6064V24.8298Z" fill="white"/>
<path d="M33.391 11.1701L24.1528 14.3401V5.11678L33.391 1.94678V11.1701Z" fill="white"/>
<path d="M24.1527 5.11667L9.23828 0V9.22333L24.1527 14.34V5.11667Z" fill="#0A3D8C"/>
<path d="M68.3808 15.6088L65.3939 18.7455V24.4116H60.2749V2.00488H65.3939V12.472L75.2464 2.00488H80.9685L71.7503 11.9922L81.509 24.4116H75.501L68.3808 15.6088Z" fill="white"/>
<path d="M83.2959 14.5517V2.00488H88.4447V14.3598C88.4447 18.6165 90.2881 20.3783 93.4045 20.3783C96.5506 20.3783 98.3627 18.6165 98.3627 14.3598V2.00488H103.449V14.5517C103.449 21.149 99.6983 24.7955 93.3717 24.7955C87.0451 24.7955 83.2959 21.146 83.2959 14.5517Z" fill="white"/>
<path d="M127.429 18.2971C127.429 22.17 124.378 24.4116 118.529 24.4116H107.022V2.00488H117.892C123.455 2.00488 126.315 4.34091 126.315 7.82997C126.315 10.07 125.171 11.7988 123.359 12.7599C125.84 13.5606 127.429 15.4798 127.429 18.2971ZM112.14 5.90927V11.1916H117.258C119.768 11.1916 121.129 10.292 121.129 8.53468C121.129 6.77741 119.762 5.90927 117.258 5.90927H112.14ZM122.249 17.7544C122.249 15.8666 120.818 14.97 118.148 14.97H112.14V20.5072H118.148C120.818 20.5057 122.249 19.6736 122.249 17.7529V17.7544Z" fill="white"/>
<path d="M147.041 20.2493V24.4116H129.812V2.00488H146.627V6.16566H134.93V11.0311H145.26V15.0645H134.93V20.2493H147.041Z" fill="white"/>
<path d="M163.6 24.4176L159.309 18.1757H154.572V24.4176H149.422V2.00488H159.054C164.998 2.00488 168.717 5.1101 168.717 10.1345C168.717 13.4961 167.032 15.9611 164.14 17.2086L169.13 24.4056L163.6 24.4176ZM158.768 6.23013H154.572V14.0404H158.768C161.914 14.0404 163.504 12.568 163.504 10.142C163.504 7.66954 161.914 6.23013 158.768 6.23013Z" fill="white"/>
</svg>
