<svg width="184" height="28" viewBox="0 0 184 28" fill="none" xmlns="http://www.w3.org/2000/svg">
<path d="M24.3321 23.5617L15.0254 26.7317V17.5084L24.3321 14.3384V23.5617Z" fill="#2196F3"/>
<path d="M15.025 17.5085L0 12.3918V21.6152L15.025 26.7318V17.5085Z" fill="#0A3D8C"/>
<path d="M37.3599 18.7768L24.3315 14.3401V23.5634L37.3599 28.0001V18.7768Z" fill="#0A3D8C"/>
<path d="M46.667 24.8315L37.3604 28.0015V18.7782L46.667 15.6082V24.8315Z" fill="#2196F3"/>
<path d="M33.6382 11.1699L24.3315 14.3399V5.11653L33.6382 1.94653V11.1699Z" fill="#2196F3"/>
<path d="M24.3311 5.11667L9.30615 0V9.22333L24.3311 14.34V5.11667Z" fill="#0A3D8C"/>
<path d="M70.6822 15.8078L68.2813 18.3769V23.0178H64.1665V4.66553H68.2813V13.2387L76.2009 4.66553H80.8005L73.3907 12.8457L81.2349 23.0178H76.4056L70.6822 15.8078Z" fill="#2196F3"/>
<path d="M82.6714 14.942V4.66553H86.8101V14.7848C86.8101 18.2713 88.2918 19.7143 90.7969 19.7143C93.3258 19.7143 94.7824 18.2713 94.7824 14.7848V4.66553H98.8709V14.942C98.8709 20.3455 95.856 23.3322 90.7705 23.3322C85.6851 23.3322 82.6714 20.3431 82.6714 14.942Z" fill="#2196F3"/>
<path d="M118.146 18.0097C118.146 21.1818 115.693 23.0178 110.992 23.0178H101.743V4.66553H110.48C114.951 4.66553 117.25 6.57886 117.25 9.43658C117.25 11.2713 116.331 12.6873 114.875 13.4745C116.869 14.1303 118.146 15.7022 118.146 18.0097ZM105.856 7.86342V12.1899H109.97C111.988 12.1899 113.082 11.4531 113.082 10.0138C113.082 8.57448 111.983 7.86342 109.97 7.86342H105.856ZM113.982 17.5652C113.982 16.019 112.832 15.2847 110.686 15.2847H105.856V19.8199H110.686C112.832 19.8187 113.982 19.1371 113.982 17.564V17.5652Z" fill="#2196F3"/>
<path d="M133.911 19.6087V23.0178H120.062V4.66553H133.578V8.07342H124.176V12.0585H132.479V15.362H124.176V19.6087H133.911Z" fill="#2196F3"/>
<path d="M147.222 23.0227L143.772 17.9103H139.965V23.0227H135.825V4.66553H143.568C148.346 4.66553 151.335 7.20886 151.335 11.3241C151.335 14.0775 149.98 16.0964 147.656 17.1182L151.667 23.0129L147.222 23.0227ZM143.338 8.12623H139.965V14.5232H143.338C145.867 14.5232 147.145 13.3173 147.145 11.3303C147.145 9.30518 145.867 8.12623 143.338 8.12623Z" fill="#2196F3"/>
</svg>
