<svg width="133" height="77" viewBox="0 0 133 77" fill="none" xmlns="http://www.w3.org/2000/svg">
<path d="M78 1.02164e-06C57.3131 7.50683e-07 37.4735 9.06068 22.8457 25.1888C8.21784 41.3169 2.74314e-06 63.1914 9.33693e-07 86C-8.75754e-07 108.809 8.21783 130.683 22.8457 146.811C37.4735 162.939 57.3131 172 78 172L78 86L78 1.02164e-06Z" fill="#2E60FF" fill-opacity="0.05"/>
<path d="M173.5 1.02819e-06C152.681 7.55495e-07 132.714 9.06068 117.992 25.1888C103.271 41.3169 95 63.1914 95 86C95 108.809 103.271 130.683 117.992 146.811C132.714 162.939 152.68 172 173.5 172L173.5 86L173.5 1.02819e-06Z" fill="#2E60FF" fill-opacity="0.05"/>
</svg>
