<svg width="330" height="137" viewBox="0 0 330 137" fill="none" xmlns="http://www.w3.org/2000/svg">
<mask id="mask0_24_2668" style="mask-type:alpha" maskUnits="userSpaceOnUse" x="0" y="0" width="330" height="137">
<rect width="330" height="137" rx="24" fill="#D9D9D9"/>
</mask>
<g mask="url(#mask0_24_2668)">
<path d="M159.226 8.39038C125.695 8.39038 93.537 21.7105 69.827 45.4205C46.117 69.1305 32.7969 101.288 32.7969 134.819C32.7969 168.35 46.117 200.508 69.827 224.218C93.537 247.928 125.695 261.248 159.226 261.248L159.226 134.819L159.226 8.39038Z" fill="#2E60FF" fill-opacity="0.03"/>
<path d="M313.11 8.39038C279.579 8.39038 247.422 21.7105 223.712 45.4205C200.002 69.1305 186.682 101.288 186.682 134.819C186.682 168.35 200.002 200.508 223.712 224.218C247.422 247.928 279.579 261.248 313.11 261.248L313.11 134.819L313.11 8.39038Z" fill="#2E60FF" fill-opacity="0.03"/>
</g>
</svg>
