<svg width="407" height="112" viewBox="0 0 407 112" fill="none" xmlns="http://www.w3.org/2000/svg">
<path d="M126.429 0.000245648C92.8978 0.000245248 60.7402 13.3204 37.0302 37.0304C13.3201 60.7404 4.43902e-06 92.8981 1.50765e-06 126.429C-1.42372e-06 159.96 13.3201 192.118 37.0301 215.828C60.7401 239.538 92.8978 252.858 126.429 252.858L126.429 126.429L126.429 0.000245648Z" fill="white" fill-opacity="0.02"/>
<path d="M280.314 0.000245648C246.783 0.000245248 214.625 13.3204 190.915 37.0304C167.205 60.7404 153.885 92.8981 153.885 126.429C153.885 159.96 167.205 192.118 190.915 215.828C214.625 239.538 246.783 252.858 280.314 252.858L280.314 126.429L280.314 0.000245648Z" fill="white" fill-opacity="0.02"/>
</svg>
