<svg width="31" height="30" viewBox="0 0 31 30" fill="none" xmlns="http://www.w3.org/2000/svg">
<path d="M12.734 1.26657C13.9296 -0.42231 16.4356 -0.422311 17.6312 1.26657L21.0496 6.09555C21.4303 6.63326 21.9773 7.03073 22.6063 7.22658L28.2553 8.98545C30.231 9.60059 31.0054 11.984 29.7686 13.6429L26.2323 18.3863C25.8386 18.9144 25.6296 19.5576 25.6377 20.2163L25.7106 26.1323C25.736 28.2014 23.7086 29.6744 21.7487 29.0108L16.1447 27.1134C15.5207 26.9021 14.8445 26.9021 14.2205 27.1134L8.61655 29.0108C6.65663 29.6744 4.62919 28.2014 4.65466 26.1323L4.72751 20.2163C4.73562 19.5576 4.52666 18.9144 4.13289 18.3863L0.596608 13.6429C-0.640167 11.984 0.134245 9.60059 2.10991 8.98545L7.75889 7.22658C8.38791 7.03073 8.93498 6.63326 9.31562 6.09555L12.734 1.26657Z" fill="white"/>
</svg>
